<?xml version="1.0" encoding="utf-8"?>
<!-- Generator: Adobe Illustrator 23.0.0, SVG Export Plug-In . SVG Version: 6.00 Build 0)  -->
<svg version="1.1" id="Layer_1" xmlns="http://www.w3.org/2000/svg" xmlns:xlink="http://www.w3.org/1999/xlink" x="0px" y="0px"
	 viewBox="0 0 1170 922" style="enable-background:new 0 0 1170 922;" xml:space="preserve">
<style type="text/css">
	.st0{opacity:0.47;fill:#183F3F;}
	.st1{fill:#686C6E;}
	.st2{fill:#585351;}
</style>
<rect x="20" y="14" class="st0" width="1131" height="892"/>
<polygon class="st1" points="6,918 8,916 72,916 70,918 "/>
<polygon class="st1" points="1166,918 1164,916 1100,916 1102,918 "/>
<g>
	<polygon class="st1" points="73,18 71,14 8,14 19.5,29.3 19.5,890.7 8,906 71,906 73,902 21.5,902 21.5,22 20,22 20,18 	"/>
	<polygon class="st1" points="87,11 93,11 1079,11 1083,11 1166,11 1169,6 1083,6 1080.6,9 91.4,9 89,6 3,6 6,11 	"/>
	<polygon class="st1" points="72,4 70,2 6,2 8,4 	"/>
	<polygon class="st1" points="1164,14 1101,14 1099,18 1152,18 1152,22 1151.5,22 1151.5,902 1099,902 1101,906 1164,906 
		1153.5,892 1153.5,28 	"/>
	<polygon class="st1" points="1166,2 1102,2 1100,4 1164,4 	"/>
	<polygon class="st1" points="1083,909 1079,909 93,909 87,909 6,909 3,914 89,914 91.4,911 1080.6,911 1083,914 1169,914 1166,909 
			"/>
</g>
</svg>
