<svg id="Layer_1" data-name="Layer 1" xmlns="http://www.w3.org/2000/svg" viewBox="0 0 178 178"><defs><style>.cls-1{fill:#183f3f;opacity:0.72;}.cls-2{fill:#21c28c;}.cls-3{fill:#ccf2cd;}.cls-4{fill:#d8d2d2;}.cls-5{fill:none;stroke:#d8d2d2;stroke-miterlimit:10;stroke-width:3.77px;}</style></defs><title>vigor</title><circle class="cls-1" cx="89" cy="89" r="89"/><path class="cls-2" d="M121.77,87.12,90.3,54.7c-4.82-4.36-9.58-7-14.55-8-.38-.08-.77-.15-1.2-.22A26.72,26.72,0,0,0,66,46.07a3,3,0,0,1-1,0,2.91,2.91,0,0,1-1.11-.49L60,42.79a66.51,66.51,0,0,1-11.65,9.66l3,4.66a2.89,2.89,0,0,1,.42,2.16,26.68,26.68,0,0,0,0,8.62c.63,5.5,3,10.6,7.5,16l29.41,30.3C102.22,106.18,119.82,88.94,121.77,87.12Z"/><path class="cls-3" d="M68.1,52.38h0a2.6,2.6,0,0,1,.19-4.21l.44-.29a2.61,2.61,0,0,1,2.16-.31l5.48,1.63a24.18,24.18,0,0,1,10.45,6.35l8.26,8.54L79.7,56.22a31.24,31.24,0,0,0-7.87-2.78l-2.65-.56A2.49,2.49,0,0,1,68.1,52.38Z"/><path class="cls-4" d="M120,85.25a95.37,95.37,0,0,1-32.7,28.4l1.86,1.94a95.34,95.34,0,0,0,32.7-28.39"/><path class="cls-4" d="M176,143.51a95.38,95.38,0,0,1-32.06,29.11l1.9,1.91a95.32,95.32,0,0,0,32.06-29.12"/><path class="cls-4" d="M161.59,125a12.65,12.65,0,0,0-3.24-6.81l-8.22-7.42a.17.17,0,0,1,0-.21l.47-.66a2,2,0,0,0-.11-2.53,42.8,42.8,0,0,0-9.89-8.63,2.06,2.06,0,0,0-2.74.56l-.3.42L92.2,52.59c-5.61-5-11.22-8-17.14-8.92a31.12,31.12,0,0,0-9.57-.41l-5.25-3.78,0-.22.41-.57a2,2,0,0,0-.08-2.51,8.36,8.36,0,0,0-4-2.69,2.17,2.17,0,0,0-.92,0l-1.44.23c-1.13-.21-1.21-.62-1.24-.74l-.26-1.57a2.14,2.14,0,0,0-.44-1,10.71,10.71,0,0,0-3.62-2.75,2.06,2.06,0,0,0-2.55.66l-.38.53a.15.15,0,0,1-.22,0l-2.54-1.8a.22.22,0,0,1,0-.23l.91-1.27a1,1,0,0,0,.11-.9,3.24,3.24,0,0,0-3-2.14.91.91,0,0,0-.84.38l-.66.92h-.26l-1.6-.6-2.06-1.47a1,1,0,0,0-.45-.17,7,7,0,0,0-1.85.07S14.36,5.78,14,6.12,28.89,25.57,28.89,25.57a4.66,4.66,0,0,0-.2,1.75,1.05,1.05,0,0,0,.16.46l2.3,3.55a.13.13,0,0,1,0,.2l-1.3.86a.89.89,0,0,0-.42.84,3.24,3.24,0,0,0,2,3.05,1,1,0,0,0,.91-.08l1.31-.84a.15.15,0,0,1,.22,0L35.53,38l-.05.23-.54.35a2,2,0,0,0-.76,2.5,10.26,10.26,0,0,0,2.58,3.75,2,2,0,0,0,1,.49l1.51.32c.15,0,.57.13.73,1.27l-.31,1.44a2.15,2.15,0,0,0,0,.91,8.13,8.13,0,0,0,2.49,4.12,2,2,0,0,0,2.5.2l.6-.39a.18.18,0,0,1,.23,0L49,58.75a29.23,29.23,0,0,0,0,9.46c.69,6,3.35,11.72,8.27,17.65l44.93,47.25-.42.28a2.06,2.06,0,0,0-.69,2.71,42.69,42.69,0,0,0,8.2,10.27,1.7,1.7,0,0,0,.68.41l.2.27.28-.14a2.07,2.07,0,0,0,1.35-.31l.68-.45a.16.16,0,0,1,.22,0l7.12,8.6a12.37,12.37,0,0,0,6.59,3.47c.51.07,1,.13,1.54.15a13.91,13.91,0,0,0,8.82-3l10-7.73,3.35-2.84,8.13-9.64A13.48,13.48,0,0,0,161.59,125Zm-51.83,5.14-5.15,3.17a.89.89,0,0,0-.24-.65L58.63,84.55C54.06,79,51.54,73.6,50.9,68a27.41,27.41,0,0,1,0-8.88,2,2,0,0,0-.3-1.48l-3.41-5.24.41,0A63.89,63.89,0,0,0,60.3,41.86l4.08,2.92a2,2,0,0,0,1.46.35,28,28,0,0,1,8.91.4C80.31,46.43,85.61,49.2,91,54l45.75,47.55-3.26,5.14A73.81,73.81,0,0,1,109.76,130.12ZM156.85,134l-8,9.53-3.19,2.72-10,7.69a11.66,11.66,0,0,1-8.9,2.47,10.49,10.49,0,0,1-5.53-2.88l-6.9-8.37c16.06-7.33,28.06-17.87,34.83-32.54v-.21L157,119.5a10.48,10.48,0,0,1,2.7,5.72A11.53,11.53,0,0,1,156.85,134Z"/><line class="cls-5" x1="108.04" y1="101.71" x2="162.51" y2="160.24"/><path class="cls-2" d="M14.89,25.18c0,4.83-5.72,7.58-9.72,6.41S-.95,25.67.41,21,12.69,3.27,12,8.16C10.08,21.47,14.94,18.26,14.89,25.18Z"/><path class="cls-3" d="M5.27,18.9s-.21-2.91-2.15.16.64,8.71.64,8.71C3,25,5.49,21.8,5.27,18.9Z"/></svg>